<svg width="512" height="512" viewBox="0 0 512 512" fill="none" xmlns="http://www.w3.org/2000/svg">
<path d="M388.53 21.53C350.524 52.076 325.038 87.652 304.578 125.217C317.102 132.897 329.952 140.03 343.094 146.597L431.838 180.637C445.535 184.419 459.384 187.63 473.348 190.262C486.841 147.354 493.22 104.438 492.781 61.532L388.531 21.532L388.53 21.53ZM121.717 25.41L136.85 90.377L205.8 106.757L192.807 42.232L121.717 25.41ZM104.123 32.258L66.896 79.803L79.254 141.828L118.748 95.043L104.123 32.258ZM131.906 108.406L94.812 152.376L146.977 160.094C154.185 157.995 161.424 156.005 168.693 154.127L196.313 123.719L131.906 108.405V108.406ZM302.476 145.752L311.252 204.664C317.162 210.724 322.888 216.92 328.382 223.279L417.406 257.436L462.723 207.218C408.003 196.118 354.413 176.398 302.475 145.75L302.476 145.752ZM232.386 159.234C183.062 168.584 134.051 181.134 85.162 201.879C125.987 236.757 162.01 274.243 191.15 315.417L340.354 270.731C313.821 228.869 274.352 193.711 232.384 159.233L232.386 159.234ZM65.71 209.848C45.093 260.13 28.07 311.115 24.24 367.025C48.775 419.917 94.442 457.648 135.004 486.745L177.48 328.295C147.505 285.442 109.43 246.353 65.71 209.848ZM351.07 287.03L195.39 333.66L153.244 490.88C205.411 483.026 257.234 469.007 309.066 442.62C334.018 389.1 339.57 342.892 351.068 287.033L351.07 287.03Z" fill="black"/>
</svg>
